<mxfile host="Electron" modified="2023-09-15T17:21:32.304Z" agent="Mozilla/5.0 (Windows NT 10.0; Win64; x64) AppleWebKit/537.36 (KHTML, like Gecko) draw.io/21.6.8 Chrome/114.0.5735.289 Electron/25.5.0 Safari/537.36" etag="SlGtU95pKH8HqkcwZAS9" version="21.6.8" type="device" pages="2">
  <diagram id="d845xamghz2u2NWkulgy" name="reporting &amp; analytics">
    <mxGraphModel dx="3180" dy="877" grid="1" gridSize="10" guides="1" tooltips="1" connect="1" arrows="1" fold="1" page="1" pageScale="1" pageWidth="850" pageHeight="1100" math="0" shadow="0">
      <root>
        <mxCell id="0" />
        <mxCell id="1" parent="0" />
        <mxCell id="vaFEKdJ4BqSWBt0-Xprv-49" value="" style="rounded=1;whiteSpace=wrap;html=1;dashed=1;fontFamily=Comic Sans MS;fontStyle=0;fillColor=#ffe6cc;strokeColor=#d79b00;sketch=1;curveFitting=1;jiggle=2;" parent="1" vertex="1">
          <mxGeometry x="-790" y="670" width="320" height="300" as="geometry" />
        </mxCell>
        <mxCell id="vaFEKdJ4BqSWBt0-Xprv-1" value="" style="rounded=0;whiteSpace=wrap;html=1;fillColor=#f5f5f5;fontColor=#333333;strokeColor=#666666;dashed=1;fontFamily=Comic Sans MS;fontStyle=0;sketch=1;curveFitting=1;jiggle=2;" parent="1" vertex="1">
          <mxGeometry x="-440" y="380" width="740" height="660" as="geometry" />
        </mxCell>
        <mxCell id="vaFEKdJ4BqSWBt0-Xprv-10" value="" style="edgeStyle=orthogonalEdgeStyle;rounded=0;orthogonalLoop=1;jettySize=auto;html=1;fillColor=#f5f5f5;strokeColor=#666666;fontFamily=Comic Sans MS;fontStyle=0;sketch=1;curveFitting=1;jiggle=2;" parent="1" source="vaFEKdJ4BqSWBt0-Xprv-2" target="vaFEKdJ4BqSWBt0-Xprv-8" edge="1">
          <mxGeometry relative="1" as="geometry" />
        </mxCell>
        <mxCell id="vaFEKdJ4BqSWBt0-Xprv-66" value="" style="edgeStyle=orthogonalEdgeStyle;rounded=0;orthogonalLoop=1;jettySize=auto;html=1;fontFamily=Comic Sans MS;sketch=1;curveFitting=1;jiggle=2;" parent="1" source="vaFEKdJ4BqSWBt0-Xprv-2" target="vaFEKdJ4BqSWBt0-Xprv-45" edge="1">
          <mxGeometry relative="1" as="geometry" />
        </mxCell>
        <mxCell id="vaFEKdJ4BqSWBt0-Xprv-2" value="Data Lake" style="rounded=0;whiteSpace=wrap;html=1;fillColor=#f5f5f5;fontColor=#333333;strokeColor=#666666;fontFamily=Comic Sans MS;fontStyle=0;sketch=1;curveFitting=1;jiggle=2;" parent="1" vertex="1">
          <mxGeometry x="-360" y="730" width="180" height="90" as="geometry" />
        </mxCell>
        <mxCell id="vaFEKdJ4BqSWBt0-Xprv-11" value="" style="edgeStyle=orthogonalEdgeStyle;rounded=0;orthogonalLoop=1;jettySize=auto;html=1;fillColor=#f5f5f5;strokeColor=#666666;fontFamily=Comic Sans MS;fontStyle=0;sketch=1;curveFitting=1;jiggle=2;" parent="1" source="vaFEKdJ4BqSWBt0-Xprv-8" target="vaFEKdJ4BqSWBt0-Xprv-9" edge="1">
          <mxGeometry relative="1" as="geometry" />
        </mxCell>
        <mxCell id="vaFEKdJ4BqSWBt0-Xprv-8" value="ETL" style="rounded=0;whiteSpace=wrap;html=1;fillColor=#f5f5f5;fontColor=#333333;strokeColor=#666666;fontFamily=Comic Sans MS;fontStyle=0;sketch=1;curveFitting=1;jiggle=2;" parent="1" vertex="1">
          <mxGeometry x="-140" y="730" width="180" height="90" as="geometry" />
        </mxCell>
        <mxCell id="vaFEKdJ4BqSWBt0-Xprv-9" value="Data Warehouse" style="rounded=0;whiteSpace=wrap;html=1;fillColor=#f5f5f5;fontColor=#333333;strokeColor=#666666;fontFamily=Comic Sans MS;fontStyle=0;sketch=1;curveFitting=1;jiggle=2;" parent="1" vertex="1">
          <mxGeometry x="80" y="730" width="180" height="90" as="geometry" />
        </mxCell>
        <mxCell id="vaFEKdJ4BqSWBt0-Xprv-67" style="edgeStyle=orthogonalEdgeStyle;rounded=0;orthogonalLoop=1;jettySize=auto;html=1;entryX=1;entryY=0.25;entryDx=0;entryDy=0;fontFamily=Comic Sans MS;startArrow=classic;startFill=1;sketch=1;curveFitting=1;jiggle=2;" parent="1" source="vaFEKdJ4BqSWBt0-Xprv-13" target="vaFEKdJ4BqSWBt0-Xprv-19" edge="1">
          <mxGeometry relative="1" as="geometry" />
        </mxCell>
        <mxCell id="vaFEKdJ4BqSWBt0-Xprv-69" style="edgeStyle=orthogonalEdgeStyle;rounded=0;orthogonalLoop=1;jettySize=auto;html=1;entryX=0.439;entryY=0.022;entryDx=0;entryDy=0;entryPerimeter=0;fontFamily=Comic Sans MS;startArrow=classic;startFill=1;sketch=1;curveFitting=1;jiggle=2;" parent="1" source="vaFEKdJ4BqSWBt0-Xprv-13" target="vaFEKdJ4BqSWBt0-Xprv-9" edge="1">
          <mxGeometry relative="1" as="geometry" />
        </mxCell>
        <mxCell id="vaFEKdJ4BqSWBt0-Xprv-13" value="Reporting Engine" style="rounded=0;whiteSpace=wrap;html=1;fillColor=#f5f5f5;fontColor=#333333;strokeColor=#666666;fontFamily=Comic Sans MS;fontStyle=0;sketch=1;curveFitting=1;jiggle=2;" parent="1" vertex="1">
          <mxGeometry x="-160" y="390" width="180" height="90" as="geometry" />
        </mxCell>
        <mxCell id="vaFEKdJ4BqSWBt0-Xprv-68" style="edgeStyle=orthogonalEdgeStyle;rounded=0;orthogonalLoop=1;jettySize=auto;html=1;entryX=0.217;entryY=0.011;entryDx=0;entryDy=0;entryPerimeter=0;fontFamily=Comic Sans MS;startArrow=classic;startFill=1;sketch=1;curveFitting=1;jiggle=2;" parent="1" source="vaFEKdJ4BqSWBt0-Xprv-14" target="vaFEKdJ4BqSWBt0-Xprv-9" edge="1">
          <mxGeometry relative="1" as="geometry">
            <Array as="points">
              <mxPoint x="119" y="560" />
            </Array>
          </mxGeometry>
        </mxCell>
        <mxCell id="vaFEKdJ4BqSWBt0-Xprv-14" value="Visualization Engine" style="rounded=0;whiteSpace=wrap;html=1;fillColor=#f5f5f5;fontColor=#333333;strokeColor=#666666;fontFamily=Comic Sans MS;fontStyle=0;sketch=1;curveFitting=1;jiggle=2;" parent="1" vertex="1">
          <mxGeometry x="-160" y="520" width="180" height="90" as="geometry" />
        </mxCell>
        <mxCell id="vaFEKdJ4BqSWBt0-Xprv-37" style="edgeStyle=orthogonalEdgeStyle;rounded=0;orthogonalLoop=1;jettySize=auto;html=1;entryX=0;entryY=0.5;entryDx=0;entryDy=0;fontFamily=Comic Sans MS;fontStyle=0;startArrow=classic;startFill=1;sketch=1;curveFitting=1;jiggle=2;" parent="1" source="vaFEKdJ4BqSWBt0-Xprv-19" target="vaFEKdJ4BqSWBt0-Xprv-14" edge="1">
          <mxGeometry relative="1" as="geometry" />
        </mxCell>
        <mxCell id="vaFEKdJ4BqSWBt0-Xprv-19" value="Web Application" style="rounded=0;whiteSpace=wrap;html=1;fillColor=#ffe6cc;strokeColor=#d79b00;fontFamily=Comic Sans MS;fontStyle=0;sketch=1;curveFitting=1;jiggle=2;" parent="1" vertex="1">
          <mxGeometry x="-770" y="460" width="230" height="90" as="geometry" />
        </mxCell>
        <mxCell id="vaFEKdJ4BqSWBt0-Xprv-44" style="edgeStyle=orthogonalEdgeStyle;rounded=0;orthogonalLoop=1;jettySize=auto;html=1;entryX=0;entryY=0.75;entryDx=0;entryDy=0;fontFamily=Comic Sans MS;fontStyle=0;sketch=1;curveFitting=1;jiggle=2;" parent="1" source="vaFEKdJ4BqSWBt0-Xprv-21" target="vaFEKdJ4BqSWBt0-Xprv-2" edge="1">
          <mxGeometry relative="1" as="geometry">
            <Array as="points">
              <mxPoint x="-400" y="920" />
              <mxPoint x="-400" y="797" />
            </Array>
          </mxGeometry>
        </mxCell>
        <mxCell id="vaFEKdJ4BqSWBt0-Xprv-21" value="External Data &lt;br&gt;Generation" style="strokeWidth=2;html=1;shape=mxgraph.flowchart.direct_data;whiteSpace=wrap;fontFamily=Comic Sans MS;fontStyle=0;sketch=1;curveFitting=1;jiggle=2;" parent="1" vertex="1">
          <mxGeometry x="-770" y="890" width="265" height="60" as="geometry" />
        </mxCell>
        <mxCell id="vaFEKdJ4BqSWBt0-Xprv-43" style="edgeStyle=orthogonalEdgeStyle;rounded=0;orthogonalLoop=1;jettySize=auto;html=1;fontFamily=Comic Sans MS;fontStyle=0;sketch=1;curveFitting=1;jiggle=2;" parent="1" source="vaFEKdJ4BqSWBt0-Xprv-38" target="vaFEKdJ4BqSWBt0-Xprv-2" edge="1">
          <mxGeometry relative="1" as="geometry" />
        </mxCell>
        <mxCell id="vaFEKdJ4BqSWBt0-Xprv-38" value="Trip Management &lt;br&gt;Subsystem" style="strokeWidth=2;html=1;shape=mxgraph.flowchart.direct_data;whiteSpace=wrap;fontFamily=Comic Sans MS;fontStyle=0;sketch=1;curveFitting=1;jiggle=2;" parent="1" vertex="1">
          <mxGeometry x="-770" y="790" width="265" height="60" as="geometry" />
        </mxCell>
        <mxCell id="vaFEKdJ4BqSWBt0-Xprv-40" style="edgeStyle=orthogonalEdgeStyle;rounded=0;orthogonalLoop=1;jettySize=auto;html=1;fontFamily=Comic Sans MS;fontStyle=0;sketch=1;curveFitting=1;jiggle=2;" parent="1" source="vaFEKdJ4BqSWBt0-Xprv-39" target="vaFEKdJ4BqSWBt0-Xprv-2" edge="1">
          <mxGeometry relative="1" as="geometry">
            <Array as="points">
              <mxPoint x="-400" y="715" />
              <mxPoint x="-400" y="760" />
            </Array>
          </mxGeometry>
        </mxCell>
        <mxCell id="vaFEKdJ4BqSWBt0-Xprv-48" style="edgeStyle=orthogonalEdgeStyle;rounded=0;orthogonalLoop=1;jettySize=auto;html=1;entryX=0;entryY=0.75;entryDx=0;entryDy=0;fontFamily=Comic Sans MS;fontStyle=0;sketch=1;curveFitting=1;jiggle=2;" parent="1" source="vaFEKdJ4BqSWBt0-Xprv-45" target="vaFEKdJ4BqSWBt0-Xprv-9" edge="1">
          <mxGeometry relative="1" as="geometry">
            <Array as="points">
              <mxPoint x="60" y="900" />
              <mxPoint x="60" y="797" />
            </Array>
          </mxGeometry>
        </mxCell>
        <mxCell id="vaFEKdJ4BqSWBt0-Xprv-45" value="Analytics Engine" style="rounded=0;whiteSpace=wrap;html=1;fillColor=#f5f5f5;fontColor=#333333;strokeColor=#666666;fontFamily=Comic Sans MS;fontStyle=0;sketch=1;curveFitting=1;jiggle=2;" parent="1" vertex="1">
          <mxGeometry x="-360" y="860" width="180" height="90" as="geometry" />
        </mxCell>
        <mxCell id="vaFEKdJ4BqSWBt0-Xprv-53" value="&lt;h1&gt;&lt;font&gt;Reporting and Analytics Subsystem&lt;/font&gt;&lt;/h1&gt;&lt;p&gt;&lt;/p&gt;&lt;ul&gt;&lt;li style=&quot;text-align: left;&quot;&gt;&lt;font&gt;This subsystem will be responsible for storing the transactional data that are both cleansed and uncleased in a data lake.&amp;nbsp;&lt;/font&gt;&lt;/li&gt;&lt;/ul&gt;&lt;ul&gt;&lt;li style=&quot;text-align: left;&quot;&gt;&lt;font&gt;The ETL and Analytics Engine will be responsible for extracting the data and converting to a meaningful data. This will be made loaded into purpose built reports.&amp;nbsp;&lt;/font&gt;&lt;/li&gt;&lt;/ul&gt;&lt;ul&gt;&lt;li style=&quot;text-align: left;&quot;&gt;&lt;font&gt;The reports will be rended by the Reporting Visualization Engine that will be accessed by a Data Buyer via a Web Application.&lt;/font&gt;&lt;/li&gt;&lt;/ul&gt;&lt;p&gt;&lt;/p&gt;" style="text;html=1;strokeColor=#6c8ebf;fillColor=#dae8fc;spacing=5;spacingTop=-20;whiteSpace=wrap;overflow=hidden;rounded=0;align=center;fontFamily=Comic Sans MS;fontStyle=0;sketch=1;curveFitting=1;jiggle=2;" parent="1" vertex="1">
          <mxGeometry x="-440" y="170" width="740" height="180" as="geometry" />
        </mxCell>
        <mxCell id="vaFEKdJ4BqSWBt0-Xprv-54" value="&lt;ul&gt;&lt;li&gt;&lt;font&gt;&lt;span&gt;The mobile app will generate metadata like location, device, downloads. It will also generate metrics on the pages / features visted which will be part of the external data generation. The analytics engine could use machine learning to find trends in the data.&lt;/span&gt;&lt;/font&gt;&lt;/li&gt;&lt;/ul&gt;&lt;ul&gt;&lt;li&gt;&lt;font&gt;&lt;span&gt;The trip management subsystem will generate events of the activities performed via either the web application or mobile application.&lt;/span&gt;&lt;/font&gt;&lt;/li&gt;&lt;/ul&gt;&lt;ul&gt;&lt;li&gt;&lt;font&gt;&lt;span&gt;The Data Integration Subsystem will also provide events via topic that a listener will subscribe to for ingestion into the Data Lake.&lt;/span&gt;&lt;/font&gt;&lt;/li&gt;&lt;/ul&gt;" style="text;html=1;strokeColor=#6c8ebf;fillColor=#dae8fc;align=left;verticalAlign=middle;whiteSpace=wrap;rounded=0;fontStyle=0;fontFamily=Comic Sans MS;sketch=1;curveFitting=1;jiggle=2;" parent="1" vertex="1">
          <mxGeometry x="-1180" y="730" width="340" height="200" as="geometry" />
        </mxCell>
        <mxCell id="vaFEKdJ4BqSWBt0-Xprv-74" style="edgeStyle=orthogonalEdgeStyle;rounded=0;orthogonalLoop=1;jettySize=auto;html=1;entryX=0;entryY=0.5;entryDx=0;entryDy=0;fontFamily=Comic Sans MS;sketch=1;curveFitting=1;jiggle=2;" parent="1" source="vaFEKdJ4BqSWBt0-Xprv-56" target="vaFEKdJ4BqSWBt0-Xprv-19" edge="1">
          <mxGeometry relative="1" as="geometry" />
        </mxCell>
        <mxCell id="vaFEKdJ4BqSWBt0-Xprv-56" value="&lt;font&gt;Data&lt;br&gt;Buyer&lt;/font&gt;" style="shape=umlActor;verticalLabelPosition=bottom;verticalAlign=top;html=1;outlineConnect=0;fontStyle=0;fontFamily=Comic Sans MS;sketch=1;curveFitting=1;jiggle=2;" parent="1" vertex="1">
          <mxGeometry x="-850" y="475" width="30" height="60" as="geometry" />
        </mxCell>
        <mxCell id="vaFEKdJ4BqSWBt0-Xprv-62" value="The Data Lake will contain both structured and unstructured data. The data will be mostly uncleansed data." style="text;html=1;strokeColor=#6c8ebf;fillColor=#dae8fc;align=center;verticalAlign=middle;whiteSpace=wrap;rounded=0;fontFamily=Comic Sans MS;sketch=1;curveFitting=1;jiggle=2;" parent="1" vertex="1">
          <mxGeometry x="-355" y="630" width="170" height="80" as="geometry" />
        </mxCell>
        <mxCell id="vaFEKdJ4BqSWBt0-Xprv-39" value="Data Integration &lt;br&gt;Subsystem" style="strokeWidth=2;html=1;shape=mxgraph.flowchart.direct_data;whiteSpace=wrap;fontFamily=Comic Sans MS;fontStyle=0;sketch=1;curveFitting=1;jiggle=2;" parent="1" vertex="1">
          <mxGeometry x="-762.5" y="685" width="265" height="60" as="geometry" />
        </mxCell>
        <mxCell id="vaFEKdJ4BqSWBt0-Xprv-64" value="The ETL will convert the data into specific views and stored as structured/cleansed data in the Data Warehouse." style="text;html=1;strokeColor=#6c8ebf;fillColor=#dae8fc;align=center;verticalAlign=middle;whiteSpace=wrap;rounded=0;fontFamily=Comic Sans MS;sketch=1;curveFitting=1;jiggle=2;" parent="1" vertex="1">
          <mxGeometry x="-140" y="630" width="180" height="80" as="geometry" />
        </mxCell>
        <mxCell id="vaFEKdJ4BqSWBt0-Xprv-65" value="This will be a mix of scripting &amp;amp; programatic code to find trends or models in the data." style="text;html=1;strokeColor=#6c8ebf;fillColor=#dae8fc;align=center;verticalAlign=middle;whiteSpace=wrap;rounded=0;fontFamily=Comic Sans MS;sketch=1;curveFitting=1;jiggle=2;" parent="1" vertex="1">
          <mxGeometry x="-360" y="960" width="180" height="70" as="geometry" />
        </mxCell>
        <mxCell id="vaFEKdJ4BqSWBt0-Xprv-81" value="&lt;ul&gt;&lt;li&gt;This will be an external facing portal that exposes select information from the reporting and visualization components.&lt;/li&gt;&lt;/ul&gt;&lt;ul&gt;&lt;li&gt;The Data Buyer will login to view monetised view of the data.&lt;/li&gt;&lt;/ul&gt;" style="text;html=1;strokeColor=#6c8ebf;fillColor=#dae8fc;align=left;verticalAlign=middle;whiteSpace=wrap;rounded=0;fontFamily=Comic Sans MS;sketch=1;curveFitting=1;jiggle=2;" parent="1" vertex="1">
          <mxGeometry x="-770" y="330" width="230" height="110" as="geometry" />
        </mxCell>
      </root>
    </mxGraphModel>
  </diagram>
  <diagram id="KRA9ApVJ1-3utcoFFg3U" name="flow">
    <mxGraphModel dx="2186" dy="844" grid="1" gridSize="10" guides="1" tooltips="1" connect="1" arrows="1" fold="1" page="1" pageScale="1" pageWidth="850" pageHeight="1100" math="0" shadow="0">
      <root>
        <mxCell id="0" />
        <mxCell id="1" parent="0" />
        <mxCell id="M-SDPkWsDWiQwd2fPonp-3" value="" style="edgeStyle=orthogonalEdgeStyle;rounded=0;orthogonalLoop=1;jettySize=auto;html=1;sketch=1;curveFitting=1;jiggle=2;" edge="1" parent="1" source="M-SDPkWsDWiQwd2fPonp-1" target="M-SDPkWsDWiQwd2fPonp-2">
          <mxGeometry relative="1" as="geometry" />
        </mxCell>
        <mxCell id="M-SDPkWsDWiQwd2fPonp-1" value="Data Buyer logs in to Reporting &amp;amp; Analytics web portal" style="rounded=0;whiteSpace=wrap;html=1;sketch=1;curveFitting=1;jiggle=2;fillColor=#f5f5f5;fontColor=#333333;strokeColor=#666666;fontFamily=Comic Sans MS;fontStyle=0" vertex="1" parent="1">
          <mxGeometry x="-680" y="320" width="200" height="70" as="geometry" />
        </mxCell>
        <mxCell id="M-SDPkWsDWiQwd2fPonp-7" value="" style="edgeStyle=orthogonalEdgeStyle;rounded=0;orthogonalLoop=1;jettySize=auto;html=1;sketch=1;curveFitting=1;jiggle=2;" edge="1" parent="1" source="M-SDPkWsDWiQwd2fPonp-2" target="M-SDPkWsDWiQwd2fPonp-6">
          <mxGeometry relative="1" as="geometry" />
        </mxCell>
        <mxCell id="M-SDPkWsDWiQwd2fPonp-2" value="Select report with parameters" style="rounded=0;whiteSpace=wrap;html=1;sketch=1;curveFitting=1;jiggle=2;fillColor=#f5f5f5;fontColor=#333333;strokeColor=#666666;fontFamily=Comic Sans MS;fontStyle=0" vertex="1" parent="1">
          <mxGeometry x="-440" y="319.99" width="200" height="70" as="geometry" />
        </mxCell>
        <mxCell id="M-SDPkWsDWiQwd2fPonp-9" value="" style="edgeStyle=orthogonalEdgeStyle;rounded=0;orthogonalLoop=1;jettySize=auto;html=1;sketch=1;curveFitting=1;jiggle=2;" edge="1" parent="1" source="M-SDPkWsDWiQwd2fPonp-6" target="M-SDPkWsDWiQwd2fPonp-8">
          <mxGeometry relative="1" as="geometry" />
        </mxCell>
        <mxCell id="M-SDPkWsDWiQwd2fPonp-6" value="Reporting Engine renders report" style="rounded=0;whiteSpace=wrap;html=1;sketch=1;curveFitting=1;jiggle=2;fillColor=#f5f5f5;fontColor=#333333;strokeColor=#666666;fontFamily=Comic Sans MS;fontStyle=0" vertex="1" parent="1">
          <mxGeometry x="-200" y="320" width="200" height="70" as="geometry" />
        </mxCell>
        <mxCell id="M-SDPkWsDWiQwd2fPonp-16" style="edgeStyle=orthogonalEdgeStyle;rounded=0;orthogonalLoop=1;jettySize=auto;html=1;entryX=0;entryY=0.5;entryDx=0;entryDy=0;sketch=1;curveFitting=1;jiggle=2;" edge="1" parent="1" source="M-SDPkWsDWiQwd2fPonp-8" target="M-SDPkWsDWiQwd2fPonp-14">
          <mxGeometry relative="1" as="geometry" />
        </mxCell>
        <mxCell id="M-SDPkWsDWiQwd2fPonp-8" value="User downloads report" style="rounded=0;whiteSpace=wrap;html=1;sketch=1;curveFitting=1;jiggle=2;fillColor=#f5f5f5;fontColor=#333333;strokeColor=#666666;fontFamily=Comic Sans MS;fontStyle=0" vertex="1" parent="1">
          <mxGeometry x="40" y="320" width="200" height="70" as="geometry" />
        </mxCell>
        <mxCell id="M-SDPkWsDWiQwd2fPonp-11" value="" style="edgeStyle=orthogonalEdgeStyle;rounded=0;orthogonalLoop=1;jettySize=auto;html=1;sketch=1;curveFitting=1;jiggle=2;" edge="1" parent="1" source="M-SDPkWsDWiQwd2fPonp-10" target="M-SDPkWsDWiQwd2fPonp-1">
          <mxGeometry relative="1" as="geometry" />
        </mxCell>
        <mxCell id="M-SDPkWsDWiQwd2fPonp-10" value="" style="ellipse;whiteSpace=wrap;html=1;aspect=fixed;sketch=1;curveFitting=1;jiggle=2;" vertex="1" parent="1">
          <mxGeometry x="-750" y="339.99" width="30" height="30" as="geometry" />
        </mxCell>
        <mxCell id="M-SDPkWsDWiQwd2fPonp-14" value="" style="shape=sumEllipse;perimeter=ellipsePerimeter;whiteSpace=wrap;html=1;backgroundOutline=1;sketch=1;curveFitting=1;jiggle=2;aspect=fixed;" vertex="1" parent="1">
          <mxGeometry x="280" y="341.87" width="30" height="26.25" as="geometry" />
        </mxCell>
        <mxCell id="TCKWXxqt1D7vRqnqQ9ZZ-1" value="&lt;h1&gt;&lt;font&gt;Data Buyer + Report + Download&lt;/font&gt;&lt;/h1&gt;&lt;div&gt;This flow shows how the Data Buyer can log into an external web application portal to view and download reports.&lt;/div&gt;&lt;p&gt;&lt;/p&gt;" style="text;html=1;strokeColor=#6c8ebf;fillColor=#dae8fc;spacing=5;spacingTop=-20;whiteSpace=wrap;overflow=hidden;rounded=0;align=center;fontFamily=Comic Sans MS;fontStyle=0" vertex="1" parent="1">
          <mxGeometry x="-520" y="200" width="740" height="90" as="geometry" />
        </mxCell>
        <mxCell id="TCKWXxqt1D7vRqnqQ9ZZ-2" value="" style="edgeStyle=orthogonalEdgeStyle;rounded=0;orthogonalLoop=1;jettySize=auto;html=1;sketch=1;curveFitting=1;jiggle=2;" edge="1" parent="1" source="TCKWXxqt1D7vRqnqQ9ZZ-3" target="TCKWXxqt1D7vRqnqQ9ZZ-5">
          <mxGeometry relative="1" as="geometry" />
        </mxCell>
        <mxCell id="TCKWXxqt1D7vRqnqQ9ZZ-3" value="Data Buyer logs in to Reporting &amp;amp; Analytics web portal" style="rounded=0;whiteSpace=wrap;html=1;sketch=1;curveFitting=1;jiggle=2;fillColor=#f5f5f5;fontColor=#333333;strokeColor=#666666;fontFamily=Comic Sans MS;fontStyle=0" vertex="1" parent="1">
          <mxGeometry x="-680" y="560" width="200" height="70" as="geometry" />
        </mxCell>
        <mxCell id="TCKWXxqt1D7vRqnqQ9ZZ-4" value="" style="edgeStyle=orthogonalEdgeStyle;rounded=0;orthogonalLoop=1;jettySize=auto;html=1;sketch=1;curveFitting=1;jiggle=2;" edge="1" parent="1" source="TCKWXxqt1D7vRqnqQ9ZZ-5" target="TCKWXxqt1D7vRqnqQ9ZZ-7">
          <mxGeometry relative="1" as="geometry" />
        </mxCell>
        <mxCell id="TCKWXxqt1D7vRqnqQ9ZZ-5" value="Select Visualization with parameters" style="rounded=0;whiteSpace=wrap;html=1;sketch=1;curveFitting=1;jiggle=2;fillColor=#f5f5f5;fontColor=#333333;strokeColor=#666666;fontFamily=Comic Sans MS;fontStyle=0" vertex="1" parent="1">
          <mxGeometry x="-440" y="559.99" width="200" height="70" as="geometry" />
        </mxCell>
        <mxCell id="TCKWXxqt1D7vRqnqQ9ZZ-6" value="" style="edgeStyle=orthogonalEdgeStyle;rounded=0;orthogonalLoop=1;jettySize=auto;html=1;sketch=1;curveFitting=1;jiggle=2;" edge="1" parent="1" source="TCKWXxqt1D7vRqnqQ9ZZ-7" target="TCKWXxqt1D7vRqnqQ9ZZ-9">
          <mxGeometry relative="1" as="geometry" />
        </mxCell>
        <mxCell id="TCKWXxqt1D7vRqnqQ9ZZ-7" value="Visualisation Engine renders report" style="rounded=0;whiteSpace=wrap;html=1;sketch=1;curveFitting=1;jiggle=2;fillColor=#f5f5f5;fontColor=#333333;strokeColor=#666666;fontFamily=Comic Sans MS;fontStyle=0" vertex="1" parent="1">
          <mxGeometry x="-200" y="560" width="200" height="70" as="geometry" />
        </mxCell>
        <mxCell id="TCKWXxqt1D7vRqnqQ9ZZ-8" style="edgeStyle=orthogonalEdgeStyle;rounded=0;orthogonalLoop=1;jettySize=auto;html=1;entryX=0;entryY=0.5;entryDx=0;entryDy=0;sketch=1;curveFitting=1;jiggle=2;" edge="1" parent="1" source="TCKWXxqt1D7vRqnqQ9ZZ-9" target="TCKWXxqt1D7vRqnqQ9ZZ-12">
          <mxGeometry relative="1" as="geometry" />
        </mxCell>
        <mxCell id="TCKWXxqt1D7vRqnqQ9ZZ-9" value="User downloads visualization" style="rounded=0;whiteSpace=wrap;html=1;sketch=1;curveFitting=1;jiggle=2;fillColor=#f5f5f5;fontColor=#333333;strokeColor=#666666;fontFamily=Comic Sans MS;fontStyle=0" vertex="1" parent="1">
          <mxGeometry x="40" y="560" width="200" height="70" as="geometry" />
        </mxCell>
        <mxCell id="TCKWXxqt1D7vRqnqQ9ZZ-10" value="" style="edgeStyle=orthogonalEdgeStyle;rounded=0;orthogonalLoop=1;jettySize=auto;html=1;sketch=1;curveFitting=1;jiggle=2;" edge="1" parent="1" source="TCKWXxqt1D7vRqnqQ9ZZ-11" target="TCKWXxqt1D7vRqnqQ9ZZ-3">
          <mxGeometry relative="1" as="geometry" />
        </mxCell>
        <mxCell id="TCKWXxqt1D7vRqnqQ9ZZ-11" value="" style="ellipse;whiteSpace=wrap;html=1;aspect=fixed;sketch=1;curveFitting=1;jiggle=2;" vertex="1" parent="1">
          <mxGeometry x="-750" y="579.99" width="30" height="30" as="geometry" />
        </mxCell>
        <mxCell id="TCKWXxqt1D7vRqnqQ9ZZ-12" value="" style="shape=sumEllipse;perimeter=ellipsePerimeter;whiteSpace=wrap;html=1;backgroundOutline=1;sketch=1;curveFitting=1;jiggle=2;aspect=fixed;" vertex="1" parent="1">
          <mxGeometry x="280" y="581.87" width="30" height="26.25" as="geometry" />
        </mxCell>
        <mxCell id="TCKWXxqt1D7vRqnqQ9ZZ-13" value="&lt;h1&gt;&lt;font&gt;Data Buyer + Visualization+ Download&lt;/font&gt;&lt;/h1&gt;&lt;div&gt;This flow shows how the Data Buyer can log into an external web application portal to view and download reports.&lt;/div&gt;&lt;p&gt;&lt;/p&gt;" style="text;html=1;strokeColor=#6c8ebf;fillColor=#dae8fc;spacing=5;spacingTop=-20;whiteSpace=wrap;overflow=hidden;rounded=0;align=center;fontFamily=Comic Sans MS;fontStyle=0" vertex="1" parent="1">
          <mxGeometry x="-520" y="440" width="740" height="90" as="geometry" />
        </mxCell>
      </root>
    </mxGraphModel>
  </diagram>
</mxfile>
